<?xml version="1.0" standalone="no"?>
<!DOCTYPE svg PUBLIC "-//W3C//DTD SVG 20010904//EN"
 "http://www.w3.org/TR/2001/REC-SVG-20010904/DTD/svg10.dtd">
<svg version="1.0" xmlns="http://www.w3.org/2000/svg"
 width="500.000000pt" height="500.000000pt" viewBox="0 0 500.000000 500.000000"
 preserveAspectRatio="xMidYMid meet">

<g transform="translate(0.000000,500.000000) scale(0.100000,-0.100000)"
fill="#000000" stroke="none">
<path d="M2470 3264 c-125 -24 -270 -102 -346 -187 -64 -71 -130 -212 -144
-308 -45 -311 163 -610 468 -670 85 -16 230 -7 306 20 170 60 309 200 368 369
31 90 33 278 4 362 -84 248 -289 405 -541 415 -49 2 -101 1 -115 -1z m245 -31
c77 -19 166 -66 224 -119 l46 -42 -45 -46 c-24 -25 -48 -46 -53 -46 -5 0 -29
18 -55 39 -43 36 -136 82 -165 80 -7 0 13 -9 43 -21 112 -42 192 -117 244
-227 29 -62 31 -73 31 -176 0 -102 -2 -115 -31 -175 -62 -130 -162 -211 -308
-247 -59 -14 -79 -15 -140 -4 -156 26 -261 103 -328 238 -42 85 -43 88 -43
192 0 99 2 111 32 174 38 80 125 172 193 205 45 21 103 37 170 47 l35 5 -3 60
c-5 86 -1 93 51 85 23 -4 69 -13 102 -22z"/>
<path d="M2598 3103 c12 -2 30 -2 40 0 9 3 -1 5 -23 4 -22 0 -30 -2 -17 -4z"/>
<path d="M2422 2995 c-148 -69 -222 -193 -209 -351 12 -157 128 -280 296 -315
123 -25 273 41 345 154 89 140 67 343 -49 444 -48 42 -150 93 -185 93 -15 0 2
-10 44 -25 74 -26 134 -63 153 -94 12 -19 3 -28 -108 -111 -67 -50 -128 -94
-136 -97 -12 -5 -14 19 -11 161 l3 166 -45 0 c-27 0 -67 -10 -98 -25z"/>
</g>
</svg>
